<svg xmlns="http://www.w3.org/2000/svg" viewBox="0 0 121.41 32.63"><defs><style>.cls-1,.cls-2,.cls-3,.cls-4{fill-rule:evenodd;}.cls-2{fill:#fff000;}.cls-3{fill:#e50012;}.cls-4{fill:#009fe8;}</style></defs><title>資產 1</title><g id="圖層_2" data-name="圖層 2"><g id="Layer_1" data-name="Layer 1"><polygon class="cls-1" points="82.37 0 100 0 100 15.21 100 15.5 82.37 15.5 82.37 15.13 82.37 0 82.37 0"/><path class="cls-1" d="M102.79,0h8.81c11.82,0,11.75,11,6.15,15.29l-.28.21H102.79V0Z"/><polygon class="cls-1" points="82.37 16.75 100 16.75 100 18.98 82.37 18.98 82.37 16.75 82.37 16.75"/><path class="cls-1" d="M102.79,16.75h14.6a10.53,10.53,0,0,1,2,2.23h-16.6V16.75Z"/><polygon class="cls-1" points="100 20.17 100 22.39 82.37 22.39 82.37 20.17 100 20.17 100 20.17"/><polygon class="cls-1" points="100 23.58 100 25.8 82.37 25.8 82.37 23.58 100 23.58 100 23.58"/><polygon class="cls-1" points="100 27 100 29.21 82.37 29.21 82.37 27 100 27 100 27"/><polygon class="cls-1" points="100 30.41 100 32.63 82.37 32.63 82.37 30.41 100 30.41 100 30.41"/><path class="cls-1" d="M120.09,20.17a10.22,10.22,0,0,1,.81,2.22H102.79V20.17Z"/><path class="cls-1" d="M121.1,23.58a8.67,8.67,0,0,1,0,2.22H102.79V23.58Z"/><path class="cls-1" d="M120.82,27a7.2,7.2,0,0,1-1.1,2.22H102.79V27Z"/><path class="cls-1" d="M118.62,30.41a10.44,10.44,0,0,1-7,2.21h-8.81V30.41Z"/><path class="cls-1" d="M20.42,0h8.81C41.05,0,41,11,35.38,15.29l-.28.21H20.42V0Z"/><polygon class="cls-1" points="0 16.75 17.63 16.75 17.63 18.98 0 18.98 0 16.75 0 16.75"/><path class="cls-1" d="M20.42,16.75H35A10.81,10.81,0,0,1,37,19H20.42V16.75Z"/><polygon class="cls-1" points="17.63 20.17 17.63 22.39 0 22.39 0 20.17 17.63 20.17 17.63 20.17"/><polygon class="cls-1" points="17.63 23.58 17.63 25.8 0 25.8 0 23.58 17.63 23.58 17.63 23.58"/><polygon class="cls-1" points="17.63 27 17.63 29.21 0 29.21 0 27 17.63 27 17.63 27"/><polygon class="cls-1" points="17.63 30.41 17.63 32.63 0 32.63 0 30.41 17.63 30.41 17.63 30.41"/><path class="cls-1" d="M37.72,20.17a10.77,10.77,0,0,1,.81,2.22H20.42V20.17Z"/><path class="cls-1" d="M38.74,23.58a8.67,8.67,0,0,1,0,2.22H20.42V23.58Z"/><path class="cls-1" d="M38.45,27a7.2,7.2,0,0,1-1.1,2.22H20.42V27Z"/><path class="cls-1" d="M36.25,30.41a10.44,10.44,0,0,1-7,2.21H20.42V30.41Z"/><polygon class="cls-1" points="40.95 0 60.7 0 68.64 15.44 68.67 15.5 48.92 15.5 48.85 15.35 40.95 0 40.95 0"/><polygon class="cls-1" points="78.67 0 64.2 0 71.46 13.69 78.67 0 78.67 0"/><polygon class="cls-1" points="49.57 16.75 69.37 16.75 70.62 18.98 50.71 18.98 49.57 16.75 49.57 16.75"/><polygon class="cls-1" points="71.29 20.17 72.6 22.39 52.46 22.39 51.32 20.17 71.29 20.17 71.29 20.17"/><polygon class="cls-1" points="73.21 23.58 74.52 25.8 54.22 25.8 53.08 23.58 73.21 23.58 73.21 23.58"/><polygon class="cls-1" points="75.22 27 76.44 29.21 55.98 29.21 54.83 27 75.22 27 75.22 27"/><polygon class="cls-1" points="77.11 30.41 78.39 32.62 57.73 32.62 56.59 30.41 77.11 30.41 77.11 30.41"/><polygon class="cls-1" points="45.56 22.39 48.96 22.39 47.38 19.34 45.56 22.39 45.56 22.39"/><polygon class="cls-1" points="44.86 23.58 43.53 25.8 50.71 25.8 49.57 23.58 44.86 23.58 44.86 23.58"/><polygon class="cls-1" points="42.82 27 41.49 29.21 52.47 29.21 51.33 27 42.82 27 42.82 27"/><polygon class="cls-1" points="40.78 30.41 39.45 32.62 54.22 32.62 53.08 30.41 40.78 30.41 40.78 30.41"/><polygon class="cls-2" points="0 0 8.06 0 8.06 6.99 0 6.99 0 0 0 0"/><polygon class="cls-3" points="9.57 0 17.63 0 17.63 6.99 9.57 6.99 9.57 0 9.57 0"/><polygon class="cls-4" points="17.63 8.51 17.63 15.21 17.63 15.5 9.57 15.5 9.57 8.51 17.63 8.51 17.63 8.51"/><polygon class="cls-3" points="8.06 15.5 0 15.5 0 15.13 0 8.51 8.06 8.51 8.06 15.5 8.06 15.5"/></g></g></svg>